<?xml version="1.0" encoding="utf-8"?>
<!-- Generator: Adobe Illustrator 28.3.0, SVG Export Plug-In . SVG Version: 6.00 Build 0)  -->
<svg version="1.1" id="Layer_1" xmlns="http://www.w3.org/2000/svg" xmlns:xlink="http://www.w3.org/1999/xlink" x="0px" y="0px"
	 viewBox="0 0 339 109.7" style="enable-background:new 0 0 339 109.7;" xml:space="preserve">
<style type="text/css">
	.st0{fill:#FFFFFF;}
</style>
<g>
	<path class="st0" d="M126.4,70.4l-2.2-6.4h-12c-0.3,1-0.7,2.1-1,3.2l-1,3.2h-5.8l10.7-29.7h6.2l10.5,29.7H126.4z M118.2,47.2
		c-0.7,2-1.4,4-2.1,5.9s-1.4,3.9-2.2,6.1h8.5L118.2,47.2z"/>
	<path class="st0" d="M149.3,40.8h-10.9v29.7h5.1V60.4h5.9c6,0,8.9-2.5,8.9-7.7v-4.2C158.2,43.3,155.2,40.8,149.3,40.8z M143.4,45.5
		h5.8c3.4,0,4,0.9,4,3v4.2c0,2.1-0.6,3-4,3h-5.8V45.5z"/>
	<path class="st0" d="M174.9,40.8H164v29.7h5.1V60.4h5.9c6,0,8.9-2.5,8.9-7.7v-4.2C183.8,43.3,180.9,40.8,174.9,40.8z M169,45.5h5.8
		c3.4,0,4,0.9,4,3v4.2c0,2.1-0.6,3-4,3H169V45.5z"/>
	<path class="st0" d="M198.8,67.5h13.7v3h-16.7V40.8h3V67.5L198.8,67.5z"/>
	<path class="st0" d="M238.7,61.9c0,4.9-3.1,9-10.7,9c-7.7,0-10.7-4.1-10.7-9V49.3c0-4.9,3.1-9,10.7-9c7.7,0,10.7,4,10.7,9V61.9z
		 M220.1,61.9c0,4.3,2.6,6.7,8.1,6.7s8.1-2.4,8.1-6.7V49.3c0-4.3-2.6-6.7-8.1-6.7s-8.1,2.4-8.1,6.7V61.9z"/>
	<path class="st0" d="M243.3,40.8h3l9.6,26.7l9.6-26.7h3l-10.7,29.7h-3.9L243.3,40.8z"/>
	<path class="st0" d="M277.7,70.5h-3V40.8h3V70.5z"/>
	<path class="st0" d="M292,44.4v26.1h-2.8V40.8h4.4l12.9,25.4V40.8h2.8v29.7h-3.5L292,44.4z"/>
	<g>
		<g>
			<path class="st0" d="M82,66.6c-3.7,0-6.7,3-6.7,6.7s3,6.7,6.7,6.7s6.7-3,6.7-6.7C88.7,69.6,85.7,66.6,82,66.6z M86,73.3
				c0,2.2-1.8,4-4,4s-4-1.8-4-4s1.8-4,4-4C84.2,69.4,86,71.1,86,73.3z"/>
			<path class="st0" d="M36.4,66.6c-3.7,0-6.7,3-6.7,6.7s3,6.7,6.7,6.7s6.7-3,6.7-6.7C43.2,69.6,40.1,66.6,36.4,66.6z M40.4,73.3
				c0,2.2-1.8,4-4,4s-4-1.8-4-4s1.8-4,4-4S40.4,71.1,40.4,73.3z"/>
			<path class="st0" d="M59.2,29.7c-3.7,0-6.7,3-6.7,6.7s3,6.7,6.7,6.7s6.7-3,6.7-6.7S62.9,29.7,59.2,29.7z M63.2,36.4
				c0,2.2-1.8,4-4,4s-4-1.8-4-4s1.8-4,4-4C61.4,32.5,63.2,34.3,63.2,36.4z"/>
		</g>
		<path class="st0" d="M79.5,67.3L64.7,40.6l-0.1-0.3l-0.2,0.2c-0.5,0.6-1.1,1.2-1.8,1.5l-0.2,0.1l0.1,0.2L75.7,66
			c-4.6-1-10.3-1.6-16.2-1.6C53,64.4,47.3,65,42.9,66l13.2-23.7l0.1-0.2L56,42c-0.7-0.4-1.3-0.9-1.8-1.5l-0.4-0.2l-0.1,0.3
			L38.8,67.3l-0.1,0.2l0.2,0.1c0.7,0.2,1.4,1.2,2,1.7l0.1,0.1l0.1-0.1l0,0c4.7-1.3,11-2,18.2-2c6.5,0,12.7,0.7,17.7,2l0.1,0.2
			l0.2-0.2l0,0c0.6-0.5,1.3-1.4,2-1.7l0.2-0.1L79.5,67.3z"/>
	</g>
</g>
</svg>
