<svg width="272" height="174" viewBox="0 0 272 174" fill="none" xmlns="http://www.w3.org/2000/svg">
<path d="M23.0847 141.426L17.2827 141.682C16.8466 131.779 18.2186 122.074 21.3449 112.917C22.5738 109.393 24.0161 106 25.7377 102.663L26.4396 101.314L27.9531 101.108C30.914 100.77 35.5835 99.9395 40.8166 97.7663C48.4307 94.6557 54.5211 89.947 58.9558 83.7847C62.4123 78.9838 64.7331 73.5391 65.8523 67.5228L58.6722 45.9138L64.3695 41.708L66.0821 42.8815C70.0061 45.5534 74.1312 48.0777 78.3762 50.1805C81.068 51.5884 83.8919 52.8517 86.7096 53.9765C92.019 53.5346 97.3823 52.7433 102.598 51.7504C109.117 50.492 115.621 48.8873 121.969 46.8732L124.563 46.0651L125.577 48.6571C127.379 53.4346 128.289 58.3901 128.235 63.4575C128.239 68.2448 127.338 72.9332 125.665 77.378L120.246 75.327C121.67 71.5175 122.391 67.4615 122.418 63.3667C122.476 59.9644 121.981 56.5864 121.006 53.2989C115.337 55.0056 109.518 56.4414 103.683 57.5309C98.0559 58.6113 92.2752 59.3515 86.4853 59.884L85.7946 59.9144L85.1608 59.6648C81.9885 58.3474 78.8132 56.9608 75.6978 55.3634C72.4412 53.7029 69.1754 51.8345 66.0417 49.8216L71.9245 67.1166L71.8169 67.8152C70.5423 75.0178 67.8528 81.5196 63.7422 87.1819C58.6564 94.2748 51.6925 99.5771 43.0606 103.149C38.0286 105.174 33.5064 106.206 30.2062 106.698C28.9376 109.321 27.8132 112.077 26.827 114.826C23.9466 123.279 22.6791 132.216 23.0847 141.426Z" fill="#99ACE0"/>
<path d="M38.5569 140.745L38.505 139.568C38.377 136.659 39.0392 134.41 40.4287 132.961C42.6166 130.783 46.0072 130.773 46.2144 130.763L46.2835 130.76L87.9339 128.926L88.072 128.92L88.2793 128.911C88.4865 128.902 91.2402 128.573 93.3256 130.354C95.1226 131.871 96.1364 134.463 96.301 138.202L102.103 137.947C101.862 132.476 100.091 128.391 96.9294 125.755C93.1253 122.661 88.6417 122.998 87.5396 123.115L46.3727 124.928C45.3336 124.905 40.1501 125.063 36.3685 128.769C33.7154 131.383 32.4956 135.114 32.6999 139.754L32.7518 140.931L38.5538 140.676L38.5569 140.745Z" fill="#99ACE0"/>
<path d="M105.253 96.3165C109.706 109.442 112.115 123.282 112.533 137.487L118.335 137.232C117.893 122.473 115.321 108.085 110.774 94.4082C109.82 91.6055 108.797 88.8058 107.639 86.0814L120.298 90.6584L122.27 85.1596L104.83 78.8505L100.575 84.3804L101.266 85.9458C102.731 89.3504 104.061 92.8305 105.253 96.3165Z" fill="#99ACE0"/>
<path d="M128.632 37.4994L74.5588 51.7174" stroke="#99ACE0" stroke-width="7.62748"/>
<path d="M64.019 53.7043L47.5217 58.8264" stroke="#99ACE0" stroke-width="7.62748"/>
<path d="M115.052 38.9953C111.869 30.9911 100.799 14.1858 77.5814 20.3534C56.0912 26.0621 53.8213 48.1795 55.855 53.6115" stroke="#99ACE0" stroke-width="7.62748"/>
<path d="M85.9658 19.9394L94.2693 31.8015M73.6309 23.8174L80.9704 34.9108" stroke="#99ACE0" stroke-width="7.62748"/>
<path d="M159.926 105.343C161.555 110.384 161.828 120.854 149.89 122.408L144.316 119.129M148.778 98.7865C135.363 101.186 136.497 111.162 138.742 115.851L144.316 119.129M144.316 119.129L125.983 150.3" stroke="#99ACE0" stroke-width="7.62748"/>
<path d="M172.798 23.8623L169.871 23.049L170.298 21.5113L177.852 23.6102L177.425 25.1479L174.498 24.3346L172.271 32.347L170.572 31.8748L172.798 23.8623ZM179.38 28.3211L179.407 28.3286C179.607 28.0938 179.895 27.9122 180.27 27.7839C180.656 27.649 181.101 27.6515 181.605 27.7914C182.036 27.9114 182.38 28.0845 182.637 28.3109C182.903 28.5397 183.098 28.7973 183.222 29.0835C183.346 29.3698 183.406 29.6771 183.402 30.0053C183.397 30.3336 183.349 30.664 183.257 30.9968L182.121 35.0839L180.502 34.6342L181.413 31.3563C181.463 31.1765 181.509 30.9761 181.551 30.7553C181.596 30.5255 181.604 30.3049 181.575 30.0936C181.558 29.8758 181.486 29.6814 181.359 29.5106C181.235 29.3307 181.033 29.202 180.755 29.1246C180.485 29.0496 180.243 29.0309 180.029 29.0683C179.824 29.1083 179.638 29.1872 179.469 29.3051C179.31 29.4255 179.176 29.5771 179.067 29.7599C178.958 29.9428 178.874 30.1421 178.814 30.3579L177.832 33.8921L176.213 33.4423L179.046 23.2446L180.665 23.6944L179.38 28.3211ZM185.996 33.2835C185.915 33.7841 185.999 34.2142 186.247 34.574C186.496 34.9337 186.85 35.1773 187.308 35.3047C187.713 35.4171 188.073 35.4299 188.388 35.343C188.714 35.2496 189.015 35.1057 189.292 34.9114L190.209 36.1105C189.701 36.4732 189.186 36.6885 188.663 36.7564C188.141 36.8243 187.623 36.787 187.111 36.6446C186.625 36.5097 186.189 36.3013 185.802 36.0195C185.415 35.7377 185.106 35.4047 184.874 35.0205C184.641 34.6363 184.488 34.2111 184.414 33.745C184.352 33.2724 184.392 32.7797 184.534 32.2672C184.677 31.7546 184.895 31.3165 185.19 30.9528C185.496 30.5826 185.848 30.2928 186.245 30.0835C186.643 29.8742 187.08 29.7486 187.556 29.7067C188.033 29.6648 188.514 29.7112 189 29.8462C189.449 29.9711 189.836 30.1657 190.16 30.43C190.495 30.6879 190.752 31.0014 190.93 31.3706C191.117 31.7423 191.222 32.1685 191.243 32.6491C191.276 33.1232 191.214 33.6436 191.056 34.2101L190.933 34.6552L185.996 33.2835ZM189.651 32.9915C189.775 32.5124 189.73 32.0979 189.517 31.7482C189.307 31.3895 188.945 31.1389 188.433 30.9965C187.947 30.8615 187.522 30.8935 187.157 31.0923C186.8 31.2936 186.526 31.6193 186.333 32.0695L189.651 32.9915ZM193.436 31.2532L194.974 31.6805L194.692 32.6922L194.719 32.6996C194.948 32.4339 195.253 32.2278 195.632 32.0815C196.023 31.9286 196.489 31.9271 197.028 32.0771C198.045 32.3594 198.608 32.947 198.718 33.8398C199.067 33.4911 199.443 33.271 199.846 33.1796C200.252 33.0793 200.697 33.0965 201.183 33.2315C201.615 33.3514 201.959 33.5245 202.216 33.7509C202.472 33.9772 202.656 34.2413 202.766 34.543C202.885 34.8473 202.937 35.1815 202.923 35.5457C202.911 35.901 202.852 36.2719 202.745 36.6586L201.673 40.5164L200.054 40.0667L201.073 36.3977C201.128 36.1998 201.163 36.006 201.177 35.8161C201.193 35.6173 201.175 35.4379 201.123 35.2781C201.073 35.1092 200.983 34.9631 200.852 34.8397C200.722 34.7162 200.535 34.6208 200.293 34.5533C200.041 34.4834 199.811 34.4729 199.604 34.5218C199.408 34.5643 199.229 34.6502 199.067 34.7796C198.917 34.9025 198.786 35.0598 198.675 35.2517C198.575 35.437 198.496 35.6331 198.438 35.8399L197.464 39.3471L195.845 38.8973L196.917 35.0394C197.03 34.6348 197.033 34.2918 196.927 34.0105C196.824 33.7202 196.574 33.5201 196.178 33.4102C195.909 33.3352 195.667 33.3165 195.453 33.3539C195.248 33.3939 195.062 33.4728 194.893 33.5907C194.734 33.7111 194.6 33.8627 194.491 34.0456C194.382 34.2284 194.297 34.4277 194.237 34.6436L193.255 38.1777L191.637 37.7279L193.436 31.2532ZM205.478 38.6969C205.397 39.1975 205.481 39.6276 205.73 39.9874C205.979 40.3471 206.332 40.5907 206.791 40.7181C207.196 40.8305 207.555 40.8433 207.87 40.7564C208.196 40.663 208.498 40.5191 208.775 40.3248L209.691 41.5239C209.184 41.8866 208.668 42.1019 208.146 42.1698C207.623 42.2377 207.106 42.2004 206.593 42.058C206.108 41.9231 205.671 41.7147 205.285 41.4329C204.898 41.1511 204.589 40.8181 204.356 40.4339C204.124 40.0497 203.971 39.6245 203.897 39.1584C203.835 38.6857 203.875 38.1931 204.017 37.6806C204.159 37.168 204.378 36.7298 204.673 36.3662C204.979 35.996 205.331 35.7062 205.728 35.4969C206.125 35.2876 206.562 35.162 207.039 35.1201C207.515 35.0781 207.997 35.1246 208.482 35.2596C208.932 35.3845 209.318 35.5791 209.642 35.8434C209.977 36.1013 210.234 36.4148 210.412 36.784C210.6 37.1557 210.704 37.5819 210.726 38.0625C210.759 38.5366 210.696 39.057 210.539 39.6235L210.415 40.0686L205.478 38.6969ZM209.134 38.4049C209.257 37.9258 209.213 37.5113 209 37.1616C208.79 36.8029 208.428 36.5523 207.915 36.4099C207.43 36.2749 207.004 36.3069 206.639 36.5057C206.283 36.707 206.008 37.0327 205.816 37.4829L209.134 38.4049ZM221.086 45.9107L219.549 45.4834L219.837 44.4448L219.81 44.4373C219.567 44.7186 219.255 44.9369 218.873 45.0922C218.493 45.2386 218.033 45.2368 217.494 45.0869C217.062 44.9669 216.712 44.797 216.444 44.5772C216.187 44.3508 215.997 44.0945 215.873 43.8083C215.752 43.513 215.693 43.2012 215.697 42.873C215.701 42.5447 215.749 42.2143 215.842 41.8815L216.977 37.7944L218.596 38.2441L217.685 41.522C217.635 41.7018 217.588 41.9066 217.543 42.1365C217.501 42.3573 217.489 42.5766 217.506 42.7944C217.534 43.0058 217.606 43.2001 217.722 43.3775C217.849 43.5484 218.056 43.6738 218.344 43.7537C218.613 43.8287 218.851 43.8462 219.056 43.8062C219.269 43.7688 219.456 43.6899 219.615 43.5695C219.784 43.4516 219.922 43.3012 220.031 43.1184C220.14 42.9355 220.225 42.7362 220.285 42.5204L221.267 38.9862L222.885 39.436L221.086 45.9107ZM224.723 39.9466L226.261 40.3738L225.972 41.4125L225.999 41.42C226.242 41.1387 226.553 40.9249 226.933 40.7786C227.315 40.6232 227.776 40.6205 228.315 40.7704C228.747 40.8904 229.091 41.0635 229.348 41.2898C229.614 41.5187 229.809 41.7762 229.933 42.0625C230.056 42.3488 230.116 42.6561 230.112 42.9843C230.108 43.3125 230.06 43.643 229.968 43.9757L228.832 48.0629L227.213 47.6131L228.124 44.3353C228.174 44.1555 228.22 43.9551 228.262 43.7343C228.306 43.5045 228.315 43.2839 228.286 43.0726C228.269 42.8548 228.197 42.6604 228.07 42.4895C227.946 42.3097 227.744 42.181 227.466 42.1035C227.196 42.0286 226.954 42.0098 226.74 42.0473C226.535 42.0872 226.349 42.1662 226.18 42.2841C226.021 42.4044 225.887 42.5561 225.778 42.7389C225.669 42.9218 225.584 43.1211 225.524 43.3369L224.542 46.871L222.924 46.4213L224.723 39.9466ZM236.065 49.0265L236.038 49.019C235.694 49.3497 235.3 49.55 234.854 49.6199C234.408 49.6898 233.956 49.6611 233.498 49.5336C232.994 49.3937 232.568 49.1834 232.22 48.9025C231.883 48.6153 231.618 48.28 231.424 47.8968C231.23 47.5136 231.119 47.0952 231.09 46.6415C231.061 46.1879 231.113 45.7228 231.245 45.2461C231.378 44.7695 231.578 44.3456 231.846 43.9744C232.113 43.6033 232.425 43.3023 232.779 43.0715C233.143 42.8432 233.542 42.6973 233.976 42.6339C234.413 42.5615 234.861 42.589 235.319 42.7165C235.625 42.8014 235.886 42.9078 236.102 43.0358C236.319 43.1637 236.503 43.3021 236.655 43.451C236.808 43.5999 236.931 43.7503 237.024 43.9021C237.12 44.045 237.193 44.1817 237.244 44.3121L237.285 44.3233L238.548 39.7775L240.166 40.2273L237.333 50.425L235.795 49.9977L236.065 49.0265ZM232.864 45.6959C232.794 45.9477 232.767 46.2017 232.783 46.458C232.808 46.7168 232.876 46.9586 232.988 47.1835C233.109 47.4108 233.271 47.6109 233.475 47.7838C233.679 47.9567 233.929 48.0843 234.226 48.1668C234.523 48.2492 234.803 48.269 235.067 48.2261C235.331 48.1831 235.569 48.0942 235.78 47.9593C236.001 47.8269 236.185 47.6551 236.331 47.4438C236.485 47.2349 236.598 47.0046 236.668 46.7528C236.738 46.501 236.76 46.2458 236.735 45.987C236.719 45.7307 236.651 45.4888 236.53 45.2615C236.418 45.0367 236.26 44.8378 236.056 44.665C235.853 44.4921 235.602 44.3644 235.306 44.282C235.009 44.1995 234.729 44.1798 234.465 44.2227C234.201 44.2656 233.959 44.3533 233.738 44.4857C233.526 44.6206 233.343 44.7924 233.188 45.0012C233.042 45.2126 232.934 45.4441 232.864 45.6959ZM241.203 48.6233C241.122 49.1238 241.206 49.554 241.455 49.9137C241.703 50.2735 242.057 50.5171 242.516 50.6445C242.92 50.7569 243.28 50.7697 243.595 50.6828C243.921 50.5894 244.223 50.4455 244.499 50.2512L245.416 51.4503C244.908 51.813 244.393 52.0283 243.871 52.0962C243.348 52.1641 242.83 52.1268 242.318 51.9844C241.832 51.8495 241.396 51.6411 241.009 51.3593C240.623 51.0775 240.313 50.7445 240.081 50.3603C239.849 49.9761 239.696 49.5509 239.622 49.0848C239.559 48.6121 239.599 48.1195 239.742 47.607C239.884 47.0944 240.103 46.6562 240.398 46.2925C240.704 45.9224 241.056 45.6326 241.453 45.4233C241.85 45.214 242.287 45.0884 242.763 45.0465C243.24 45.0045 243.721 45.051 244.207 45.186C244.656 45.3109 245.043 45.5055 245.367 45.7698C245.702 46.0277 245.959 46.3412 246.137 46.7104C246.324 47.0821 246.429 47.5083 246.45 47.9889C246.483 48.463 246.421 48.9834 246.264 49.5499L246.14 49.995L241.203 48.6233ZM244.859 48.3313C244.982 47.8521 244.937 47.4377 244.725 47.088C244.514 46.7293 244.153 46.4787 243.64 46.3363C243.155 46.2013 242.729 46.2333 242.364 46.4321C242.008 46.6334 241.733 46.9591 241.54 47.4092L244.859 48.3313ZM248.711 46.6117L250.329 47.0615L250.044 48.0867L250.071 48.0942C250.356 47.7664 250.694 47.5454 251.084 47.431C251.474 47.3166 251.885 47.3194 252.317 47.4393C252.416 47.4668 252.507 47.5021 252.592 47.545C252.686 47.5905 252.779 47.6405 252.87 47.6949L252.436 49.2597C252.311 49.1862 252.183 49.1217 252.053 49.0663C251.935 49.0043 251.813 48.9558 251.687 48.9209C251.309 48.8159 250.984 48.8029 250.71 48.8818C250.448 48.9542 250.228 49.0629 250.053 49.2078C249.886 49.3551 249.755 49.5125 249.66 49.6799C249.574 49.8497 249.518 49.9796 249.493 50.0695L248.53 53.5362L246.912 53.0864L248.711 46.6117ZM170.135 42.4396C170.001 42.1893 169.847 41.977 169.673 41.8026C169.499 41.6282 169.304 41.5111 169.088 41.4511C168.791 41.3686 168.511 41.3489 168.247 41.3918C167.983 41.4348 167.741 41.5224 167.52 41.6548C167.308 41.7897 167.125 41.9615 166.97 42.1704C166.824 42.3817 166.716 42.6132 166.646 42.865C166.576 43.1168 166.549 43.3709 166.565 43.6272C166.59 43.886 166.658 44.1278 166.77 44.3526C166.891 44.5799 167.054 44.78 167.257 44.9529C167.461 45.1258 167.712 45.2535 168.008 45.3359C168.26 45.4059 168.508 45.4214 168.751 45.3824C168.997 45.3345 169.224 45.2328 169.431 45.0775L170.188 46.5374C169.981 46.6543 169.754 46.7412 169.506 46.7981C169.266 46.8575 169.029 46.8933 168.793 46.9052C168.557 46.9172 168.336 46.9092 168.131 46.8812C167.923 46.8622 167.747 46.8327 167.604 46.7927C167.118 46.6578 166.682 46.4494 166.295 46.1676C165.908 45.8858 165.599 45.5528 165.367 45.1686C165.134 44.7844 164.981 44.3592 164.907 43.8931C164.845 43.4205 164.885 42.9279 165.027 42.4153C165.17 41.9027 165.388 41.4646 165.683 41.1009C165.99 40.7307 166.341 40.4409 166.738 40.2316C167.136 40.0223 167.573 39.8967 168.049 39.8548C168.526 39.8129 169.007 39.8594 169.493 39.9943C169.906 40.1092 170.297 40.3051 170.666 40.5819C171.046 40.8522 171.346 41.202 171.566 41.6311L170.135 42.4396ZM171.535 44.2234C171.677 43.7108 171.896 43.2727 172.191 42.909C172.497 42.5388 172.849 42.2491 173.246 42.0398C173.643 41.8305 174.08 41.7048 174.557 41.6629C175.033 41.621 175.514 41.6675 176 41.8024C176.486 41.9373 176.922 42.1457 177.308 42.4275C177.695 42.7093 178.004 43.0423 178.237 43.4265C178.469 43.8107 178.616 44.2392 178.679 44.7118C178.753 45.1779 178.718 45.6673 178.576 46.1799C178.434 46.6924 178.209 47.1338 177.903 47.504C177.608 47.8677 177.262 48.1542 176.865 48.3635C176.468 48.5728 176.031 48.6984 175.554 48.7403C175.078 48.7823 174.597 48.7358 174.111 48.6009C173.625 48.4659 173.189 48.2576 172.803 47.9758C172.416 47.6939 172.106 47.3609 171.874 46.9767C171.642 46.5925 171.489 46.1673 171.415 45.7012C171.352 45.2286 171.392 44.736 171.535 44.2234ZM173.153 44.6732C173.084 44.925 173.057 45.179 173.072 45.4353C173.097 45.6941 173.166 45.9359 173.278 46.1607C173.399 46.3881 173.561 46.5882 173.765 46.761C173.969 46.9339 174.219 47.0616 174.516 47.144C174.812 47.2265 175.093 47.2463 175.357 47.2033C175.62 47.1604 175.858 47.0715 176.07 46.9366C176.291 46.8042 176.474 46.6323 176.62 46.421C176.775 46.2122 176.887 45.9819 176.957 45.7301C177.027 45.4783 177.05 45.223 177.025 44.9642C177.009 44.7079 176.94 44.4661 176.82 44.2388C176.708 44.0139 176.55 43.8151 176.346 43.6422C176.142 43.4693 175.892 43.3417 175.595 43.2592C175.298 43.1768 175.018 43.157 174.754 43.2C174.491 43.2429 174.248 43.3306 174.027 43.4629C173.816 43.5978 173.632 43.7697 173.477 43.9785C173.331 44.1898 173.223 44.4214 173.153 44.6732ZM180.991 43.3636L182.529 43.7909L182.24 44.8295L182.267 44.837C182.51 44.5558 182.821 44.342 183.201 44.1956C183.583 44.0403 184.044 44.0375 184.584 44.1875C185.015 44.3074 185.36 44.4805 185.616 44.7069C185.882 44.9357 186.077 45.1933 186.201 45.4796C186.325 45.7658 186.385 46.0731 186.381 46.4013C186.377 46.7296 186.328 47.0601 186.236 47.3928L185.1 51.4799L183.482 51.0302L184.392 47.7524C184.442 47.5725 184.488 47.3722 184.53 47.1514C184.575 46.9215 184.583 46.701 184.554 46.4896C184.537 46.2718 184.465 46.0775 184.338 45.9066C184.214 45.7267 184.012 45.598 183.734 45.5206C183.464 45.4456 183.222 45.4269 183.008 45.4643C182.803 45.5043 182.617 45.5832 182.448 45.7011C182.289 45.8215 182.155 45.9731 182.046 46.156C181.937 46.3388 181.853 46.5381 181.793 46.754L180.811 50.2881L179.192 49.8383L180.991 43.3636ZM191.691 48.2693C191.499 47.7412 191.138 47.4035 190.607 47.256C190.391 47.1961 190.165 47.1913 189.928 47.2418C189.691 47.2922 189.539 47.4388 189.472 47.6816C189.417 47.8795 189.462 48.0471 189.608 48.1845C189.754 48.3219 189.949 48.4583 190.192 48.5937C190.435 48.7291 190.695 48.874 190.972 49.0284C191.26 49.1763 191.515 49.3584 191.735 49.5748C191.959 49.7821 192.122 50.0309 192.226 50.3212C192.329 50.6115 192.322 50.968 192.204 51.3906C192.097 51.7773 191.92 52.0818 191.675 52.3041C191.44 52.5199 191.166 52.6713 190.851 52.7582C190.545 52.8476 190.216 52.882 189.863 52.8615C189.511 52.841 189.168 52.7845 188.835 52.6921C188.331 52.5522 187.888 52.3515 187.506 52.0902C187.123 51.8289 186.818 51.4632 186.59 50.993L187.95 50.2812C188.092 50.5725 188.259 50.827 188.45 51.0449C188.653 51.2562 188.925 51.4094 189.267 51.5043C189.384 51.5368 189.509 51.557 189.642 51.565C189.776 51.573 189.905 51.5606 190.03 51.5276C190.156 51.4946 190.263 51.4419 190.35 51.3695C190.45 51.2906 190.517 51.1881 190.552 51.0623C190.615 50.8374 190.575 50.6473 190.434 50.4919C190.294 50.3366 190.101 50.1912 189.858 50.0558C189.617 49.9113 189.352 49.7697 189.061 49.6308C188.782 49.4854 188.529 49.3135 188.303 49.1151C188.08 48.9078 187.915 48.6635 187.809 48.3822C187.704 48.1009 187.708 47.7534 187.823 47.3398C187.923 46.9801 188.081 46.6898 188.297 46.469C188.525 46.2417 188.784 46.0763 189.075 45.9729C189.365 45.8696 189.679 45.8211 190.016 45.8276C190.353 45.8342 190.684 45.8824 191.007 45.9723C191.439 46.0923 191.845 46.2874 192.225 46.5577C192.608 46.819 192.88 47.1658 193.04 47.5979L191.691 48.2693ZM193.593 48.3472L193.975 46.9713L195.31 47.3423L195.831 45.4674L197.45 45.9171L196.929 47.7921L198.71 48.2868L198.327 49.6627L196.547 49.168L195.76 52.0007C195.67 52.3244 195.657 52.5969 195.721 52.8182C195.795 53.0421 196.011 53.204 196.371 53.3039C196.515 53.3439 196.676 53.3741 196.854 53.3946C197.035 53.4061 197.185 53.3897 197.304 53.3452L196.926 54.7076C196.732 54.741 196.506 54.7363 196.247 54.6933C195.994 54.6618 195.773 54.6198 195.584 54.5673C195.152 54.4474 194.811 54.2993 194.56 54.1229C194.315 53.958 194.138 53.7586 194.028 53.5248C193.931 53.2845 193.89 53.0117 193.907 52.7065C193.933 52.4037 193.999 52.0635 194.103 51.6858L194.928 48.7182L193.593 48.3472ZM199.973 48.6379L201.592 49.0877L201.307 50.1128L201.334 50.1203C201.619 49.7926 201.956 49.5716 202.346 49.4572C202.737 49.3428 203.148 49.3456 203.579 49.4655C203.678 49.493 203.77 49.5282 203.855 49.5712C203.949 49.6167 204.042 49.6666 204.133 49.7211L203.698 51.2858C203.573 51.2124 203.446 51.1479 203.316 51.0925C203.198 51.0305 203.075 50.982 202.95 50.947C202.572 50.8421 202.246 50.8291 201.972 50.908C201.71 50.9804 201.491 51.0891 201.315 51.2339C201.148 51.3813 201.017 51.5387 200.922 51.706C200.836 51.8759 200.781 52.0058 200.756 52.0957L199.793 55.5624L198.174 55.1126L199.973 48.6379ZM209.325 58.211L207.787 57.7837L208.076 56.7451L208.049 56.7376C207.806 57.0188 207.494 57.2371 207.111 57.3925C206.732 57.5388 206.272 57.5371 205.732 57.3871C205.301 57.2672 204.951 57.0973 204.683 56.8775C204.426 56.6511 204.235 56.3948 204.112 56.1085C203.99 55.8133 203.932 55.5015 203.936 55.1733C203.94 54.845 203.988 54.5146 204.08 54.1818L205.216 50.0947L206.835 50.5444L205.924 53.8222C205.874 54.0021 205.827 54.2069 205.782 54.4367C205.74 54.6576 205.728 54.8769 205.745 55.0947C205.773 55.3061 205.845 55.5004 205.96 55.6778C206.087 55.8486 206.295 55.9741 206.582 56.054C206.852 56.129 207.089 56.1465 207.294 56.1065C207.508 56.0691 207.695 55.9902 207.854 55.8698C208.022 55.7519 208.161 55.6015 208.27 55.4186C208.379 55.2358 208.463 55.0365 208.523 54.8206L209.505 51.2865L211.124 51.7363L209.325 58.211ZM216.846 55.4186C216.712 55.1683 216.558 54.956 216.384 54.7816C216.209 54.6072 216.014 54.49 215.799 54.4301C215.502 54.3476 215.222 54.3279 214.958 54.3708C214.694 54.4137 214.452 54.5014 214.231 54.6338C214.019 54.7687 213.836 54.9405 213.681 55.1493C213.535 55.3607 213.427 55.5922 213.357 55.844C213.287 56.0958 213.26 56.3498 213.276 56.6061C213.301 56.8649 213.369 57.1068 213.481 57.3316C213.602 57.5589 213.764 57.759 213.968 57.9319C214.172 58.1048 214.422 58.2324 214.719 58.3149C214.971 58.3849 215.219 58.4004 215.462 58.3614C215.708 58.3135 215.934 58.2118 216.142 58.0565L216.899 59.5163C216.692 59.6332 216.465 59.7202 216.216 59.7771C215.977 59.8365 215.739 59.8722 215.504 59.8842C215.268 59.8962 215.047 59.8882 214.842 59.8602C214.634 59.8412 214.458 59.8117 214.314 59.7717C213.829 59.6368 213.393 59.4284 213.006 59.1466C212.619 58.8648 212.31 58.5318 212.078 58.1476C211.845 57.7634 211.692 57.3382 211.618 56.8721C211.556 56.3994 211.596 55.9068 211.738 55.3942C211.881 54.8817 212.099 54.4435 212.394 54.0798C212.7 53.7097 213.052 53.4199 213.449 53.2106C213.846 53.0013 214.283 52.8757 214.76 52.8338C215.237 52.7918 215.718 52.8383 216.203 52.9733C216.617 53.0882 217.008 53.2841 217.377 53.5609C217.757 53.8312 218.057 54.1809 218.277 54.6101L216.846 55.4186ZM218.331 55.221L218.714 53.8451L220.049 54.2161L220.57 52.3412L222.189 52.7909L221.668 54.6659L223.448 55.1606L223.066 56.5365L221.285 56.0418L220.498 58.8745C220.408 59.1982 220.395 59.4707 220.46 59.6921C220.533 59.9159 220.75 60.0778 221.11 60.1777C221.254 60.2177 221.415 60.2479 221.593 60.2684C221.774 60.2799 221.924 60.2635 222.043 60.219L221.664 61.5814C221.471 61.6148 221.244 61.6101 220.985 61.5671C220.732 61.5356 220.511 61.4936 220.323 61.4411C219.891 61.3212 219.55 61.1731 219.298 60.9967C219.053 60.8318 218.876 60.6324 218.767 60.3986C218.669 60.1583 218.629 59.8855 218.646 59.5803C218.672 59.2775 218.737 58.9373 218.842 58.5596L219.667 55.592L218.331 55.221ZM224.752 55.5229L226.37 55.9726L224.571 62.4473L222.953 61.9976L224.752 55.5229ZM225.133 53.2605C225.206 52.9997 225.363 52.8011 225.604 52.6647C225.857 52.5219 226.132 52.4916 226.428 52.5741C226.725 52.6566 226.946 52.8197 227.092 53.0635C227.248 53.3008 227.288 53.5589 227.211 53.8377C227.133 54.1164 226.965 54.3215 226.706 54.4529C226.458 54.5778 226.185 54.599 225.889 54.5165C225.592 54.4341 225.371 54.2709 225.226 54.0271C225.092 53.7768 225.061 53.5212 225.133 53.2605ZM227.006 59.6364C227.148 59.1238 227.367 58.6857 227.661 58.322C227.968 57.9518 228.319 57.6621 228.717 57.4528C229.114 57.2435 229.551 57.1178 230.027 57.0759C230.504 57.034 230.985 57.0805 231.471 57.2154C231.956 57.3503 232.392 57.5587 232.779 57.8405C233.166 58.1223 233.475 58.4553 233.708 58.8395C233.94 59.2237 234.087 59.6522 234.15 60.1248C234.223 60.5909 234.189 61.0803 234.047 61.5929C233.904 62.1054 233.68 62.5468 233.374 62.917C233.079 63.2807 232.733 63.5672 232.336 63.7765C231.939 63.9858 231.502 64.1114 231.025 64.1533C230.548 64.1953 230.067 64.1488 229.582 64.0138C229.096 63.8789 228.66 63.6705 228.273 63.3887C227.887 63.1069 227.577 62.7739 227.345 62.3897C227.113 62.0055 226.959 61.5803 226.886 61.1142C226.823 60.6416 226.863 60.149 227.006 59.6364ZM228.624 60.0862C228.554 60.3379 228.527 60.592 228.543 60.8483C228.568 61.1071 228.637 61.3489 228.749 61.5737C228.869 61.8011 229.032 62.0012 229.236 62.174C229.439 62.3469 229.69 62.4746 229.986 62.557C230.283 62.6395 230.563 62.6592 230.827 62.6163C231.091 62.5734 231.329 62.4844 231.541 62.3496C231.762 62.2172 231.945 62.0453 232.091 61.834C232.246 61.6252 232.358 61.3949 232.428 61.1431C232.498 60.8913 232.521 60.636 232.496 60.3772C232.48 60.1209 232.411 59.8791 232.29 59.6518C232.178 59.4269 232.021 59.2281 231.817 59.0552C231.613 58.8823 231.363 58.7547 231.066 58.6722C230.769 58.5898 230.489 58.57 230.225 58.6129C229.961 58.6559 229.719 58.7436 229.498 58.8759C229.286 59.0108 229.103 59.1827 228.948 59.3915C228.802 59.6028 228.694 59.8344 228.624 60.0862ZM236.462 58.7766L238 59.2039L237.711 60.2425L237.738 60.25C237.981 59.9688 238.292 59.755 238.672 59.6086C239.054 59.4532 239.515 59.4505 240.054 59.6005C240.486 59.7204 240.83 59.8935 241.087 60.1199C241.353 60.3487 241.548 60.6063 241.672 60.8925C241.795 61.1788 241.855 61.4861 241.851 61.8143C241.847 62.1426 241.799 62.473 241.707 62.8058L240.571 66.8929L238.952 66.4432L239.863 63.1654C239.913 62.9855 239.959 62.7852 240.001 62.5643C240.045 62.3345 240.053 62.114 240.025 61.9026C240.008 61.6848 239.936 61.4904 239.809 61.3196C239.685 61.1397 239.483 61.011 239.204 60.9336C238.935 60.8586 238.693 60.8399 238.479 60.8773C238.274 60.9173 238.088 60.9962 237.919 61.1141C237.76 61.2345 237.626 61.3861 237.517 61.5689C237.408 61.7518 237.323 61.9511 237.263 62.167L236.281 65.7011L234.663 65.2513L236.462 58.7766ZM245.129 64.9337L243.51 64.4839L245.332 57.9283L246.95 58.378L245.129 64.9337ZM242.671 66.4593C242.751 66.1715 242.923 65.9529 243.187 65.8036C243.46 65.6567 243.745 65.6245 244.042 65.707C244.33 65.7869 244.554 65.9558 244.715 66.2136C244.876 66.4714 244.916 66.7442 244.836 67.032C244.757 67.3197 244.58 67.537 244.307 67.6839C244.042 67.8333 243.762 67.8667 243.465 67.7843C243.321 67.7443 243.189 67.6786 243.069 67.5871C242.958 67.4982 242.866 67.395 242.792 67.2776C242.718 67.1602 242.667 67.0298 242.639 66.8864C242.62 66.7455 242.631 66.6031 242.671 66.4593Z" fill="#99ACE0"/>
<path d="M189.158 58.9255C186.728 69.2541 174.472 87.0839 144.889 75.7753" stroke="#99ACE0" stroke-width="2"/>
</svg>
