<svg width="1440" height="467" viewBox="0 0 1440 467" fill="none" xmlns="http://www.w3.org/2000/svg">
<g filter="url(#filter0_d_28_2140)">
<path d="M-2.18831e-05 115.895C102.924 56.3475 304.348 58.3613 777.391 58.3614C1193.04 58.3615 1322.46 57.5873 1440 0.000234429L1440 488L-9.21436e-05 488L-2.18831e-05 115.895Z" fill="url(#paint0_linear_28_2140)"/>
<path d="M-2.18831e-05 115.895C102.924 56.3475 304.348 58.3613 777.391 58.3614C1193.04 58.3615 1322.46 57.5873 1440 0.000234429L1440 488L-9.21436e-05 488L-2.18831e-05 115.895Z" fill="url(#paint1_linear_28_2140)" fill-opacity="0.6"/>
</g>
<defs>
<filter id="filter0_d_28_2140" x="-4" y="0.000244141" width="1448" height="496" filterUnits="userSpaceOnUse" color-interpolation-filters="sRGB">
<feFlood flood-opacity="0" result="BackgroundImageFix"/>
<feColorMatrix in="SourceAlpha" type="matrix" values="0 0 0 0 0 0 0 0 0 0 0 0 0 0 0 0 0 0 127 0" result="hardAlpha"/>
<feOffset dy="4"/>
<feGaussianBlur stdDeviation="2"/>
<feColorMatrix type="matrix" values="0 0 0 0 0 0 0 0 0 0 0 0 0 0 0 0 0 0 0.25 0"/>
<feBlend mode="normal" in2="BackgroundImageFix" result="effect1_dropShadow_28_2140"/>
<feBlend mode="normal" in="SourceGraphic" in2="effect1_dropShadow_28_2140" result="shape"/>
</filter>
<linearGradient id="paint0_linear_28_2140" x1="756.5" y1="24.1414" x2="870.642" y2="296.166" gradientUnits="userSpaceOnUse">
<stop stop-color="#B1E2F6"/>
<stop offset="1" stop-color="#04A0E3"/>
</linearGradient>
<linearGradient id="paint1_linear_28_2140" x1="550" y1="244" x2="47.3809" y2="65.4522" gradientUnits="userSpaceOnUse">
<stop stop-color="#5127AA"/>
<stop offset="1" stop-color="#D82444"/>
</linearGradient>
</defs>
</svg>
