<svg width="75" height="65" viewBox="0 0 75 65" fill="none" xmlns="http://www.w3.org/2000/svg">
<path d="M3.80927 65H0C0 58.4125 1.17906 52.0092 3.49183 46.0206C4.3988 43.7172 5.44181 41.506 6.66622 39.3409L7.16506 38.4656L8.16272 38.3735C10.1127 38.2353 13.1964 37.8207 16.6882 36.5308C21.7673 34.6882 25.894 31.7399 28.9777 27.7782C31.3811 24.6917 33.059 21.1446 33.966 17.1828L29.8846 2.6258L33.7392 0L34.8276 0.829199C37.3218 2.71793 39.952 4.51453 42.6729 6.03473C44.3961 7.04819 46.2101 7.96953 48.024 8.79872C51.5158 8.66052 55.053 8.29199 58.4995 7.78526C62.8076 7.14033 67.1157 6.26506 71.3331 5.11339L73.0564 4.65273L73.6459 6.40326C74.6889 9.62792 75.1424 12.9447 74.961 16.3076C74.825 19.4862 74.0994 22.5726 72.875 25.4748L69.3831 23.9546C70.4261 21.467 71.0157 18.7952 71.1517 16.0772C71.2878 13.82 71.061 11.5627 70.5168 9.35152C66.7529 10.3189 62.8983 11.1021 59.0437 11.6549C55.3251 12.2077 51.5158 12.5301 47.7066 12.7144H47.2531L46.845 12.5301C44.8043 11.5627 42.7636 10.5493 40.7683 9.39759C38.6822 8.19986 36.5962 6.86393 34.6009 5.43586L37.9567 17.0907L37.866 17.5514C36.8229 22.2962 34.873 26.5344 32.016 30.1736C28.4788 34.7342 23.7626 38.051 18.0033 40.1701C14.6476 41.3678 11.6546 41.9206 9.47783 42.151C8.57086 43.8554 7.75459 45.652 7.02901 47.4486C4.89763 52.9766 3.80927 58.8731 3.80927 65Z" fill="#991A30"/>
<path d="M13.9675 65V64.2169C13.9675 62.2821 14.4663 60.8079 15.4186 59.8866C16.9151 58.5046 19.1372 58.5968 19.2732 58.5968H19.3186H46.6637H46.7544H46.8904C47.0265 58.5968 48.8404 58.4586 50.1555 59.7024C51.2892 60.7619 51.8788 62.5124 51.8788 65H55.688C55.688 61.3607 54.645 58.5968 52.6497 56.7541C50.2462 54.589 47.2986 54.6811 46.573 54.7272H19.5453C18.8651 54.6811 15.464 54.635 12.8791 56.9844C11.0652 58.6428 10.1582 61.0843 10.1582 64.1708V64.9539H13.9675V65Z" fill="#991A30"/>
<path d="M58.9528 37.4522C61.4924 46.297 62.6714 55.5564 62.5354 65H66.3446C66.4807 55.1878 65.2109 45.5599 62.6261 36.3466C62.0819 34.4578 61.4923 32.5691 60.8121 30.7264L68.9748 34.1354L70.426 30.5422L59.1796 25.8434L56.2319 29.3905L56.6401 30.45C57.5017 32.7534 58.2726 35.1028 58.9528 37.4522Z" fill="#991A30"/>
</svg>
